<svg width="207" height="98" viewBox="0 0 207 98" fill="none" xmlns="http://www.w3.org/2000/svg">
<path d="M33.9062 13.9141C32.6406 14.6172 31.4453 15.4141 30.3203 16.3047C28.3047 17.9922 26.8047 18.8359 25.8203 18.8359C25.0703 18.8359 24.3906 18.5313 23.7812 17.9219C23.125 17.2656 22.7969 16.5391 22.7969 15.7422C22.7969 14.0078 25.0703 11.4297 29.6172 8.00781C36.6016 2.75781 44.2891 0.132812 52.6797 0.132812C59.1953 0.132812 64.375 2.26562 68.2188 6.53125C71.6875 10.375 73.4219 15.0156 73.4219 20.4531C73.4219 29.4531 70.0938 40.0234 63.4375 52.1641C55.6562 66.3672 45.5312 78.1328 33.0625 87.4609C23.8281 94.3984 15.625 97.8672 8.45312 97.8672C5.64062 97.8672 3.50781 97.0234 2.05469 95.3359C0.882813 93.9297 0.296875 92.4297 0.296875 90.8359C0.296875 88.4453 1.84375 83.0547 4.9375 74.6641C9.625 62.1016 15.4375 49 22.375 35.3594C23.4062 33.2969 27.25 26.1484 33.9062 13.9141ZM40.5156 10.6797C41.9219 11.3828 42.625 12.1562 42.625 13C42.625 13.6094 41.7344 15.5312 39.9531 18.7656C31.1875 34.4688 23.7812 49.5156 17.7344 63.9062C12.25 76.8438 9.50781 84.7891 9.50781 87.7422C9.50781 89.6172 10.3984 90.5547 12.1797 90.5547C15.1797 90.5547 19.2109 88.9375 24.2734 85.7031C30.6016 81.7188 37.5625 75.0391 45.1562 65.6641C52.0469 57.2266 57.4844 48.25 61.4688 38.7344C64.5625 31.4219 66.1094 24.9297 66.1094 19.2578C66.1094 15.2266 65.125 12.2266 63.1562 10.2578C61.1875 8.24219 58.2344 7.23438 54.2969 7.23438C50.3125 7.23438 45.7188 8.38281 40.5156 10.6797ZM68.7812 75.0156V76.2812C68.7812 77.3125 69.0391 78.2031 69.5547 78.9531C70.7266 80.6875 72.6484 81.5547 75.3203 81.5547C81.1797 81.5547 87.9531 77.0547 95.6406 68.0547C97 66.5078 98.1484 65.7344 99.0859 65.7344C99.6016 65.7344 100.07 65.9922 100.492 66.5078C100.773 66.8828 100.914 67.2344 100.914 67.5625C100.914 69.3906 98.6641 72.4844 94.1641 76.8438C90.6484 80.2656 86.8984 83.0547 82.9141 85.2109C78.9297 87.3672 75.2266 88.4453 71.8047 88.4453C68.2891 88.4453 65.5234 87.2266 63.5078 84.7891C62.1484 83.1016 61.4688 80.8047 61.4688 77.8984C61.4688 69.9766 65.1953 62.2188 72.6484 54.625C78.6953 48.4375 83.9688 45.3438 88.4688 45.3438C89.6875 45.3438 90.7891 45.7188 91.7734 46.4688C92.9922 47.4531 93.6016 48.7422 93.6016 50.3359C93.6016 52.8203 92.4531 55.8672 90.1562 59.4766C85.4219 66.9766 78.2969 72.1562 68.7812 75.0156ZM70.3281 69.5312C73.6094 68.4062 76.1875 67.1406 78.0625 65.7344C81.3438 63.2031 83.9453 60.3438 85.8672 57.1562C86.5703 56.0312 86.9219 55.0234 86.9219 54.1328C86.9219 53.1953 86.4766 52.7266 85.5859 52.7266C84.3672 52.7266 82.6328 53.6406 80.3828 55.4688C76.3516 58.7031 73 63.3906 70.3281 69.5312ZM135.086 41.8281C137.992 41.8281 140.172 42.3438 141.625 43.375C143.078 44.4062 143.805 45.9766 143.805 48.0859C143.805 50.8516 142.773 53.5234 140.711 56.1016C138.742 58.5391 135.789 60.5078 131.852 62.0078C129.695 62.8047 127.891 63.2031 126.438 63.2031C124.469 63.2031 123.484 62.3359 123.484 60.6016C123.484 59.4297 124.047 58.5391 125.172 57.9297C125.453 57.7891 127.047 57.3906 129.953 56.7344C131.688 56.3594 133.281 55.5391 134.734 54.2734C136 53.1953 136.633 52.0234 136.633 50.7578C136.633 49.7734 136.352 49.0469 135.789 48.5781C135.227 48.1094 134.383 47.875 133.258 47.875C130.539 47.875 127.539 48.9766 124.258 51.1797C120.461 53.6641 118.562 56.6172 118.562 60.0391C118.562 62.4766 119.805 65.5234 122.289 69.1797C125.055 73.1641 126.438 76.5391 126.438 79.3047C126.438 83.4297 124.609 86.6641 120.953 89.0078C118.703 90.4609 116.148 91.1875 113.289 91.1875C108.789 91.1875 105.367 89.5703 103.023 86.3359C101.383 84.0391 100.562 81.3203 100.562 78.1797C100.562 74.5234 101.5 71.4531 103.375 68.9688C104.594 67.3281 105.859 66.5078 107.172 66.5078C108.344 66.5078 108.93 66.9766 108.93 67.9141C108.93 68.2891 108.719 68.8516 108.297 69.6016C107.219 71.6172 106.68 73.9844 106.68 76.7031C106.68 79 107.5 80.9453 109.141 82.5391C110.594 83.9453 112.258 84.6484 114.133 84.6484C115.961 84.6484 117.391 84.0391 118.422 82.8203C119.266 81.7891 119.688 80.4766 119.688 78.8828C119.688 76.9141 118.562 74.3594 116.312 71.2188C113.219 66.9062 111.672 62.9922 111.672 59.4766C111.672 54.7891 114.227 50.6406 119.336 47.0312C124.305 43.5625 129.555 41.8281 135.086 41.8281ZM166.656 43.1641C170.5 43.1641 172.422 45.5078 172.422 50.1953C172.422 56.4297 169.539 64.3281 163.773 73.8906C157.492 84.25 151.422 89.4297 145.562 89.4297C142.844 89.4297 140.852 88.1641 139.586 85.6328C138.93 84.3672 138.602 82.8438 138.602 81.0625C138.602 75.0625 140.664 68.5469 144.789 61.5156C148.633 55 153.156 49.9375 158.359 46.3281C161.406 44.2188 164.172 43.1641 166.656 43.1641ZM159.344 69.7422C158.172 68.8047 157.586 68.0781 157.586 67.5625C157.586 67.1875 158.336 66.1562 159.836 64.4688C164.055 59.7344 166.164 55.9141 166.164 53.0078C166.164 52.6328 166.047 52.2578 165.812 51.8828C165.438 51.1797 164.852 50.8281 164.055 50.8281C162.555 50.8281 160.352 52.2812 157.445 55.1875C153.695 58.9375 150.836 62.8047 148.867 66.7891C146.57 71.3359 145.422 75.1094 145.422 78.1094C145.422 78.9062 145.633 79.6094 146.055 80.2188C146.664 81.0625 147.438 81.4844 148.375 81.4844C150.625 81.4844 153.039 79.7969 155.617 76.4219C156.742 75.0156 157.656 73.5625 158.359 72.0625C159.062 70.5625 159.391 69.7891 159.344 69.7422ZM198.438 44.9219C202.141 44.9219 203.992 46.8672 203.992 50.7578C203.992 54.1797 202.656 57.625 199.984 61.0938C197.922 63.7188 196.117 65.0312 194.57 65.0312C193.258 65.0312 192.602 64.2812 192.602 62.7812C192.602 61.9844 192.789 61.3516 193.164 60.8828C193.305 60.6953 193.867 60.1562 194.852 59.2656C195.695 58.4688 196.562 57.2734 197.453 55.6797C198.062 54.6016 198.367 53.7344 198.367 53.0781C198.367 52.3281 197.945 51.9531 197.102 51.9531C196.117 51.9531 194.617 52.7266 192.602 54.2734C189.414 56.7578 186.227 60.6484 183.039 65.9453C179.758 71.4766 178.117 75.8359 178.117 79.0234C178.117 80.0547 178.422 80.9688 179.031 81.7656C179.922 82.9844 181.117 83.5938 182.617 83.5938C185.57 83.5938 189.062 81.7656 193.094 78.1094C196.516 74.9688 199.398 71.8281 201.742 68.6875C202.961 66.9531 204.016 66.0859 204.906 66.0859C205.422 66.0859 205.891 66.3203 206.312 66.7891C206.688 67.2578 206.875 67.7266 206.875 68.1953C206.875 69.9297 204.648 73.3047 200.195 78.3203C193.117 86.1953 186.695 90.1328 180.93 90.1328C177.461 90.1328 174.812 88.8906 172.984 86.4062C171.672 84.5781 171.016 82.4219 171.016 79.9375C171.016 75.0625 173.031 69.4141 177.062 62.9922C180.953 56.8516 185.453 51.9062 190.562 48.1562C193.562 46 196.188 44.9219 198.438 44.9219Z" fill="#0A1D37"/>
</svg>
