<svg width="589" height="262" viewBox="0 0 589 262" fill="none" xmlns="http://www.w3.org/2000/svg">
<g clip-path="url(#clip0)" filter="url(#filter0_d)">
<path d="M525.836 105.132H187.72C186.284 105.132 184.907 105.703 183.892 106.718C182.877 107.733 182.307 109.11 182.307 110.546C182.307 111.981 182.877 113.358 183.892 114.373C184.907 115.388 186.284 115.959 187.72 115.959H197.297V245.459C197.297 246.894 197.867 248.271 198.883 249.286C199.898 250.302 201.275 250.872 202.71 250.872C204.146 250.872 205.523 250.302 206.538 249.286C207.553 248.271 208.123 246.894 208.123 245.459L208.206 115.959H479.578L504.599 245.459C504.599 246.894 505.17 248.271 506.185 249.286C507.2 250.302 508.577 250.872 510.013 250.872C511.448 250.872 512.825 250.302 513.84 249.286C514.855 248.271 515.426 246.894 515.426 245.459L517.001 115.959H525.836C527.271 115.959 528.648 115.388 529.663 114.373C530.679 113.358 531.249 111.981 531.249 110.546C531.249 109.11 530.679 107.733 529.663 106.718C528.648 105.703 527.271 105.132 525.836 105.132V105.132Z" fill="#B69075"/>
<path d="M246.328 81.0121V103.935H188.897C187.391 103.988 185.891 103.743 184.48 103.216C183.069 102.688 181.777 101.888 180.675 100.86C179.574 99.833 178.686 98.5989 178.061 97.2283C177.437 95.8578 177.089 94.3777 177.036 92.8725C176.984 91.3673 177.228 89.8666 177.756 88.4559C178.284 87.0453 179.084 85.7524 180.111 84.6511C181.139 83.5497 182.373 82.6615 183.743 82.0371C185.114 81.4127 186.594 81.0644 188.099 81.0121C188.365 81.0028 188.631 81.0028 188.897 81.0121L246.328 81.0121Z" fill="#F2F2F2"/>
<path d="M247.738 103.759C247.738 103.993 247.645 104.217 247.48 104.382C247.315 104.548 247.091 104.641 246.857 104.641H187.873C184.671 104.638 181.601 103.365 179.338 101.1C177.074 98.8348 175.803 95.7638 175.803 92.5618C175.803 89.3597 177.074 86.2887 179.338 84.0237C181.601 81.7587 184.671 80.4851 187.873 80.4829H246.857C246.973 80.4826 247.088 80.5052 247.195 80.5494C247.302 80.5936 247.4 80.6584 247.482 80.7403C247.564 80.8222 247.629 80.9195 247.673 81.0267C247.718 81.1338 247.741 81.2486 247.741 81.3646C247.741 81.4806 247.718 81.5954 247.673 81.7025C247.629 81.8096 247.564 81.9069 247.482 81.9888C247.4 82.0707 247.302 82.1356 247.195 82.1798C247.088 82.224 246.973 82.2465 246.857 82.2463H187.873C185.14 82.2504 182.52 83.339 180.589 85.2731C178.658 87.2072 177.573 89.8286 177.573 92.5618C177.573 95.2949 178.658 97.9163 180.589 99.8504C182.52 101.785 185.14 102.873 187.873 102.877H246.857C247.091 102.877 247.315 102.97 247.48 103.136C247.645 103.301 247.738 103.525 247.738 103.759V103.759Z" fill="#0A1D37"/>
<path d="M246.328 86.3021H184.611C184.564 86.3024 184.519 86.2841 184.486 86.2514C184.453 86.2186 184.434 86.174 184.434 86.1274C184.433 86.0808 184.451 86.0358 184.484 86.0025C184.516 85.9691 184.561 85.9501 184.608 85.9495H246.328C246.374 85.9499 246.418 85.9687 246.451 86.0017C246.484 86.0347 246.502 86.0793 246.502 86.1258C246.502 86.1722 246.484 86.2168 246.451 86.2499C246.418 86.2829 246.374 86.3017 246.328 86.3021Z" fill="#CCCCCC"/>
<path d="M246.328 90.5341H184.611C184.564 90.5343 184.519 90.5161 184.486 90.4833C184.453 90.4506 184.434 90.406 184.434 90.3594C184.433 90.3127 184.451 90.2678 184.484 90.2344C184.516 90.2011 184.561 90.182 184.608 90.1814H246.328C246.374 90.1819 246.418 90.2006 246.451 90.2337C246.484 90.2667 246.502 90.3113 246.502 90.3577C246.502 90.4042 246.484 90.4488 246.451 90.4818C246.418 90.5148 246.374 90.5336 246.328 90.5341Z" fill="#CCCCCC"/>
<path d="M246.328 94.766H184.611C184.564 94.7662 184.519 94.748 184.486 94.7152C184.453 94.6825 184.434 94.6379 184.434 94.5913C184.433 94.5446 184.451 94.4997 184.484 94.4664C184.516 94.433 184.561 94.4139 184.608 94.4133H246.328C246.374 94.4138 246.418 94.4326 246.451 94.4656C246.484 94.4986 246.502 94.5432 246.502 94.5897C246.502 94.6361 246.484 94.6807 246.451 94.7137C246.418 94.7467 246.374 94.7655 246.328 94.766Z" fill="#CCCCCC"/>
<path d="M246.328 98.9979H184.611C184.564 98.9982 184.519 98.9799 184.486 98.9472C184.453 98.9144 184.434 98.8699 184.434 98.8232C184.433 98.7766 184.451 98.7316 184.484 98.6983C184.516 98.6649 184.561 98.6459 184.608 98.6453H246.328C246.374 98.6457 246.418 98.6645 246.451 98.6975C246.484 98.7305 246.502 98.7751 246.502 98.8216C246.502 98.8681 246.484 98.9126 246.451 98.9457C246.418 98.9787 246.374 98.9975 246.328 98.9979Z" fill="#CCCCCC"/>
<path d="M235.502 56.8609V79.7843H178.07C175.031 79.8901 172.073 78.7839 169.849 76.7092C167.625 74.6345 166.316 71.7612 166.21 68.7214C166.104 65.6815 167.21 62.7242 169.285 60.4999C171.36 58.2757 174.233 56.9667 177.273 56.8609C177.539 56.8517 177.805 56.8517 178.07 56.8609H235.502Z" fill="#F2F2F2"/>
<path d="M236.913 79.6078C236.913 79.8416 236.82 80.0658 236.654 80.2311C236.489 80.3964 236.265 80.4894 236.031 80.4895H177.048C173.844 80.4895 170.772 79.2169 168.507 76.9517C166.241 74.6864 164.969 71.6141 164.969 68.4106C164.969 65.2071 166.241 62.1348 168.507 59.8696C170.772 57.6044 173.844 56.3318 177.048 56.3318H236.031C236.147 56.3318 236.262 56.3546 236.369 56.3989C236.476 56.4432 236.573 56.5081 236.655 56.59C236.736 56.6719 236.801 56.7691 236.846 56.8761C236.89 56.983 236.913 57.0977 236.913 57.2135C236.913 57.3292 236.89 57.4439 236.846 57.5508C236.801 57.6578 236.736 57.755 236.655 57.8369C236.573 57.9188 236.476 57.9837 236.369 58.028C236.262 58.0723 236.147 58.0951 236.031 58.0951H177.048C174.312 58.0951 171.688 59.1819 169.753 61.1165C167.819 63.051 166.732 65.6748 166.732 68.4106C166.732 71.1465 167.819 73.7703 169.753 75.7048C171.688 77.6393 174.312 78.7261 177.048 78.7261H236.031C236.265 78.7262 236.489 78.8192 236.654 78.9845C236.82 79.1498 236.913 79.374 236.913 79.6078Z" fill="#3F3D56"/>
<path d="M235.501 62.1508H173.785C173.738 62.151 173.693 62.1328 173.66 62.1C173.627 62.0673 173.608 62.0227 173.607 61.9761C173.607 61.9294 173.625 61.8845 173.658 61.8511C173.69 61.8178 173.735 61.7987 173.781 61.7981H235.501C235.548 61.7986 235.592 61.8173 235.625 61.8504C235.658 61.8834 235.676 61.928 235.676 61.9744C235.676 62.0209 235.658 62.0655 235.625 62.0985C235.592 62.1315 235.548 62.1503 235.501 62.1508V62.1508Z" fill="#CCCCCC"/>
<path d="M235.501 66.383H173.785C173.738 66.3832 173.693 66.365 173.66 66.3322C173.627 66.2995 173.608 66.2549 173.607 66.2082C173.607 66.1616 173.625 66.1167 173.658 66.0833C173.69 66.05 173.735 66.0309 173.781 66.0303H235.501C235.548 66.0307 235.592 66.0495 235.625 66.0826C235.658 66.1156 235.676 66.1602 235.676 66.2066C235.676 66.2531 235.658 66.2977 235.625 66.3307C235.592 66.3637 235.548 66.3825 235.501 66.383Z" fill="#CCCCCC"/>
<path d="M235.501 70.6149H173.785C173.738 70.6151 173.693 70.5969 173.66 70.5641C173.627 70.5314 173.608 70.4868 173.607 70.4402C173.607 70.3935 173.625 70.3486 173.658 70.3152C173.69 70.2819 173.735 70.2628 173.781 70.2622H235.501C235.548 70.2627 235.592 70.2814 235.625 70.3145C235.658 70.3475 235.676 70.3921 235.676 70.4385C235.676 70.485 235.658 70.5296 235.625 70.5626C235.592 70.5956 235.548 70.6144 235.501 70.6149Z" fill="#CCCCCC"/>
<path d="M235.501 74.8468H173.785C173.738 74.847 173.693 74.8288 173.66 74.7961C173.627 74.7633 173.608 74.7187 173.607 74.6721C173.607 74.6254 173.625 74.5805 173.658 74.5472C173.69 74.5138 173.735 74.4948 173.781 74.4941H235.501C235.548 74.4946 235.592 74.5134 235.625 74.5464C235.658 74.5794 235.676 74.624 235.676 74.6705C235.676 74.7169 235.658 74.7615 235.625 74.7945C235.592 74.8276 235.548 74.8463 235.501 74.8468V74.8468Z" fill="#CCCCCC"/>
<path d="M302.312 186.248V166.261C302.312 165.378 301.961 164.53 301.336 163.906C300.712 163.281 299.864 162.93 298.981 162.93H223.196C222.313 162.93 221.466 163.281 220.841 163.906C220.216 164.53 219.865 165.378 219.865 166.261V186.248H302.312Z" fill="#B69075"/>
<path d="M302.312 193.744H219.865V219.56H302.312V193.744Z" fill="#B69075"/>
<path d="M219.865 227.055V247.043C219.865 247.926 220.216 248.773 220.841 249.398C221.466 250.023 222.313 250.374 223.196 250.374H298.981C299.864 250.374 300.712 250.023 301.336 249.398C301.961 248.773 302.312 247.926 302.312 247.043V227.055H219.865Z" fill="#B69075"/>
<path d="M260.672 177.92C262.052 177.92 263.171 176.802 263.171 175.422C263.171 174.042 262.052 172.924 260.672 172.924C259.292 172.924 258.174 174.042 258.174 175.422C258.174 176.802 259.292 177.92 260.672 177.92Z" fill="white"/>
<path d="M260.672 211.232C262.052 211.232 263.171 210.114 263.171 208.734C263.171 207.354 262.052 206.236 260.672 206.236C259.292 206.236 258.174 207.354 258.174 208.734C258.174 210.114 259.292 211.232 260.672 211.232Z" fill="white"/>
<path d="M260.807 243.839C262.187 243.839 263.305 242.72 263.305 241.34C263.305 239.961 262.187 238.842 260.807 238.842C259.427 238.842 258.309 239.961 258.309 241.34C258.309 242.72 259.427 243.839 260.807 243.839Z" fill="white"/>
<path d="M292.965 140.141V163.064H235.533C232.495 163.168 229.54 162.061 227.317 159.986C225.094 157.912 223.787 155.04 223.681 152.001C223.575 148.963 224.68 146.007 226.753 143.783C228.826 141.559 231.697 140.249 234.735 140.141C235.001 140.131 235.267 140.131 235.533 140.141H292.965Z" fill="#F2F2F2"/>
<path d="M294.375 162.888C294.375 163.121 294.282 163.346 294.116 163.511C293.951 163.676 293.727 163.769 293.493 163.769H234.51C231.307 163.77 228.235 162.499 225.969 160.235C223.704 157.971 222.43 154.9 222.428 151.698C222.426 148.495 223.696 145.422 225.959 143.156C228.222 140.89 231.292 139.615 234.495 139.612H293.493C293.609 139.611 293.724 139.634 293.831 139.678C293.938 139.722 294.036 139.787 294.118 139.869C294.2 139.951 294.265 140.048 294.31 140.155C294.354 140.262 294.377 140.377 294.377 140.493C294.377 140.609 294.354 140.724 294.31 140.831C294.265 140.938 294.2 141.036 294.118 141.117C294.036 141.199 293.938 141.264 293.831 141.308C293.724 141.353 293.609 141.375 293.493 141.375H234.51C231.776 141.378 229.156 142.467 227.224 144.401C225.293 146.335 224.208 148.957 224.208 151.69C224.208 154.424 225.293 157.046 227.224 158.98C229.156 160.914 231.776 162.002 234.51 162.006H293.493C293.727 162.006 293.951 162.099 294.116 162.264C294.282 162.43 294.375 162.654 294.375 162.888V162.888Z" fill="#3F3D56"/>
<path d="M292.964 145.431H231.248C231.201 145.431 231.156 145.413 231.123 145.38C231.09 145.347 231.071 145.302 231.07 145.256C231.07 145.209 231.088 145.164 231.121 145.131C231.153 145.098 231.198 145.078 231.244 145.078H292.964C293.011 145.078 293.055 145.097 293.088 145.13C293.121 145.163 293.139 145.208 293.139 145.254C293.139 145.301 293.121 145.345 293.088 145.378C293.055 145.411 293.011 145.43 292.964 145.431H292.964Z" fill="#CCCCCC"/>
<path d="M292.964 149.663H231.248C231.201 149.663 231.156 149.645 231.123 149.612C231.09 149.579 231.071 149.535 231.07 149.488C231.07 149.441 231.088 149.396 231.121 149.363C231.153 149.33 231.198 149.311 231.244 149.31H292.964C293.011 149.311 293.055 149.329 293.088 149.362C293.121 149.395 293.139 149.44 293.139 149.486C293.139 149.533 293.121 149.577 293.088 149.61C293.055 149.643 293.011 149.662 292.964 149.663H292.964Z" fill="#CCCCCC"/>
<path d="M292.964 153.895H231.248C231.201 153.895 231.156 153.877 231.123 153.844C231.09 153.811 231.071 153.767 231.07 153.72C231.07 153.673 231.088 153.628 231.121 153.595C231.153 153.562 231.198 153.543 231.244 153.542H292.964C293.011 153.542 293.055 153.561 293.088 153.594C293.121 153.627 293.139 153.672 293.139 153.718C293.139 153.765 293.121 153.809 293.088 153.842C293.055 153.875 293.011 153.894 292.964 153.895H292.964Z" fill="#CCCCCC"/>
<path d="M292.964 158.127H231.248C231.201 158.127 231.156 158.109 231.123 158.076C231.09 158.043 231.071 157.999 231.07 157.952C231.07 157.905 231.088 157.86 231.121 157.827C231.153 157.794 231.198 157.775 231.244 157.774H292.964C293.011 157.774 293.055 157.793 293.088 157.826C293.121 157.859 293.139 157.904 293.139 157.95C293.139 157.997 293.121 158.041 293.088 158.074C293.055 158.107 293.011 158.126 292.964 158.127H292.964Z" fill="#CCCCCC"/>
<path d="M225.514 49.2137H199.348C199.1 49.2135 198.855 49.2705 198.632 49.3803L192.028 52.6865C191.81 52.7788 191.625 52.9331 191.495 53.1301C191.364 53.327 191.295 53.5579 191.295 53.7941C191.295 54.0302 191.364 54.2612 191.495 54.4581C191.625 54.655 191.81 54.8093 192.028 54.9017L198.632 58.2079C198.855 58.3177 199.1 58.3747 199.348 58.3745H225.514C225.875 58.3953 226.229 58.2733 226.501 58.0348C226.772 57.7963 226.938 57.4605 226.964 57.1002V50.4879C226.938 50.1276 226.772 49.7919 226.501 49.5534C226.229 49.3149 225.875 49.1929 225.514 49.2137V49.2137Z" fill="#3F3D56"/>
<path d="M226.963 50.4879V57.1003C226.938 57.4606 226.771 57.7964 226.5 58.0348C226.229 58.2733 225.874 58.3954 225.514 58.3745H220.301V49.2137H225.514C225.874 49.1929 226.229 49.3149 226.5 49.5534C226.771 49.7919 226.938 50.1276 226.963 50.4879V50.4879Z" fill="#0A1D37"/>
<path d="M68.6374 178.781C72.0067 179.965 75.6242 180.262 79.1415 179.642C82.6587 179.023 85.9571 177.508 88.7189 175.243C95.7526 169.34 97.9579 159.614 99.7522 150.608C101.521 141.729 103.29 132.85 105.06 123.97L93.9481 131.621C85.9574 137.123 77.7867 142.802 72.254 150.771C66.7213 158.741 64.3063 169.62 68.7516 178.243" fill="#9AAC97"/>
<path d="M69.5878 211.031C68.4631 202.839 67.3067 194.542 68.0956 186.262C68.7962 178.909 71.0395 171.727 75.6067 165.838C78.031 162.719 80.9808 160.045 84.3236 157.939C85.1953 157.389 85.9976 158.771 85.1297 159.318C79.3457 162.974 74.8719 168.372 72.3535 174.734C69.5719 181.809 69.1252 189.521 69.6046 197.037C69.8945 201.582 70.5088 206.097 71.1279 210.606C71.1767 210.81 71.1462 211.025 71.0427 211.207C70.9391 211.39 70.7702 211.526 70.5701 211.588C70.3659 211.643 70.1483 211.616 69.9644 211.511C69.7805 211.407 69.6452 211.234 69.5878 211.031L69.5878 211.031Z" fill="#B69177"/>
<path d="M80.4199 196.535C81.865 198.731 83.8512 200.518 86.1874 201.724C88.5236 202.93 91.131 203.514 93.7583 203.419C100.51 203.099 106.14 198.386 111.207 193.912L126.195 180.679L116.275 180.204C109.142 179.863 101.824 179.544 95.0296 181.744C88.2352 183.944 81.969 189.238 80.7266 196.271" fill="#9AAC97"/>
<path d="M66.4098 215.74C71.8228 206.162 78.1014 195.517 89.3202 192.115C92.4395 191.172 95.7104 190.835 98.9566 191.12C99.9797 191.208 99.7242 192.785 98.703 192.697C93.2616 192.246 87.8308 193.682 83.3247 196.766C78.9886 199.717 75.6125 203.821 72.755 208.172C71.0047 210.837 69.4369 213.616 67.8687 216.39C67.3676 217.277 65.9028 216.637 66.4098 215.74L66.4098 215.74Z" fill="#B18A6E"/>
<path d="M57.7366 225.821C57.9189 223.708 58.6777 221.685 59.9302 219.973C61.1826 218.262 62.8808 216.926 64.8398 216.113V210.575H74.1269V216.287C75.9895 217.141 77.5924 218.473 78.7723 220.147C79.9522 221.822 80.6668 223.78 80.8434 225.821L83.0272 251.207H55.5527L57.7366 225.821Z" fill="#DAF1F6"/>
<path d="M373.575 104.612L370.812 103.449L368.917 89.5989H343.679L341.624 103.392L339.153 104.628C339.034 104.687 338.939 104.784 338.883 104.904C338.827 105.024 338.813 105.159 338.844 105.288C338.874 105.416 338.947 105.531 339.051 105.613C339.154 105.695 339.283 105.74 339.415 105.74H373.347C373.483 105.74 373.614 105.693 373.719 105.607C373.824 105.521 373.896 105.402 373.923 105.269C373.95 105.136 373.93 104.998 373.866 104.878C373.803 104.759 373.7 104.664 373.575 104.612V104.612Z" fill="#E6E6E6"/>
<path d="M418.426 91.4416H294.447C293.796 91.4401 293.173 91.1807 292.714 90.7202C292.254 90.2598 291.996 89.6358 291.996 88.9853V71.5027H420.876V88.9853C420.876 89.6358 420.618 90.2597 420.159 90.7202C419.699 91.1807 419.076 91.4401 418.426 91.4416V91.4416Z" fill="#CCCCCC"/>
<path d="M421.006 79.7654H291.883V4.96095C291.884 4.17592 292.196 3.4233 292.751 2.86821C293.306 2.31312 294.059 2.00088 294.844 2H418.045C418.83 2.00088 419.582 2.31312 420.138 2.86821C420.693 3.4233 421.005 4.17591 421.006 4.96095L421.006 79.7654Z" fill="#3F3D56"/>
<path d="M413.294 74.3361H299.595C298.99 74.3355 298.41 74.0948 297.982 73.6668C297.554 73.2389 297.313 72.6587 297.312 72.0535V9.71203C297.313 9.1068 297.554 8.52656 297.982 8.09859C298.41 7.67062 298.99 7.42989 299.595 7.4292H413.294C413.899 7.42989 414.48 7.67063 414.908 8.09859C415.336 8.52656 415.576 9.1068 415.577 9.71203V72.0535C415.576 72.6587 415.336 73.2389 414.908 73.6668C414.48 74.0948 413.899 74.3355 413.294 74.3361V74.3361Z" fill="white"/>
<path d="M383.348 96.3333C384.082 95.6552 384.956 95.1464 385.908 94.8426C386.86 94.5388 387.867 94.4474 388.858 94.5749C389.849 94.7024 390.8 95.0457 391.644 95.5805C392.488 96.1153 393.205 96.8288 393.743 97.6705L409.123 94.9363L413.064 103.877L391.291 107.433C389.817 108.244 388.097 108.486 386.456 108.114C384.815 107.741 383.368 106.78 382.389 105.411C381.41 104.043 380.967 102.363 381.143 100.69C381.32 99.0171 382.104 97.4668 383.348 96.3333V96.3333Z" fill="#FFB6B6"/>
<path d="M397.586 107.749L413.619 107.549L415.648 107.522L448.268 107.111C448.268 107.111 457.127 98.6599 464.84 89.9592L463.759 82.1395C462.704 74.4653 458.897 67.4356 453.047 62.3586C441.999 69.7404 435.593 84.3516 435.593 84.3516L415.367 89.1892L413.344 89.6731L400.777 92.6762L397.586 107.749Z" fill="#0A1D37"/>
<path d="M479.66 155.812H449.732C449.732 157.094 417.017 158.135 417.017 158.135C416.295 158.678 415.638 159.302 415.056 159.994C413.31 162.076 412.356 164.709 412.361 167.427V169.286C412.362 172.366 413.587 175.32 415.765 177.498C417.943 179.676 420.897 180.9 423.977 180.901H479.66C482.74 180.899 485.693 179.674 487.87 177.496C490.048 175.319 491.273 172.366 491.275 169.286V167.427C491.271 164.348 490.046 161.396 487.868 159.219C485.691 157.041 482.739 155.816 479.66 155.812V155.812Z" fill="#B18A6E"/>
<path d="M457.896 180.44H445.816V250.166H457.896V180.44Z" fill="#B69075"/>
<path d="M411.436 249.742C411.436 251.047 429.741 250.247 452.322 250.247C474.903 250.247 493.208 251.047 493.208 249.742C493.208 248.437 474.903 238.086 452.322 238.086C429.741 238.086 411.436 248.437 411.436 249.742Z" fill="#B69075"/>
<path d="M403.32 241.775L394.33 241.775L390.053 207.097L403.321 207.098L403.32 241.775Z" fill="#FFB6B6"/>
<path d="M405.614 250.49L376.625 250.489V250.122C376.625 247.13 377.814 244.26 379.93 242.144C382.046 240.028 384.916 238.839 387.908 238.839H387.909L405.615 238.84L405.614 250.49Z" fill="#2F2E41"/>
<path d="M376.75 241.775L367.759 241.775L363.482 207.097L376.751 207.098L376.75 241.775Z" fill="#FFB6B6"/>
<path d="M379.042 250.49L350.053 250.489V250.122C350.053 247.13 351.242 244.26 353.358 242.144C355.474 240.028 358.344 238.839 361.336 238.839H361.337L379.042 238.84L379.042 250.49Z" fill="#2F2E41"/>
<path d="M457.282 42.1332C465.916 42.1332 472.914 35.1345 472.914 26.5013C472.914 17.868 465.916 10.8694 457.282 10.8694C448.649 10.8694 441.65 17.868 441.65 26.5013C441.65 35.1345 448.649 42.1332 457.282 42.1332Z" fill="#FFB6B6"/>
<path d="M482.582 133.605C482.582 133.605 487.827 161.34 467.871 164.871C447.915 168.403 419.107 170.885 419.107 170.885L406.171 231.242L388.791 229.69C388.791 229.69 391.102 157.035 396.787 151.35C402.471 145.666 438.398 128.646 438.398 128.646L482.582 133.605Z" fill="#2F2E41"/>
<path d="M443.608 121.981L434.88 130.737C434.88 130.737 371.859 140.888 369.428 155.444C365.757 177.419 361.422 225.207 361.422 225.207L380.37 223.786L387.8 169.464L418.116 162.568L452.608 143.771L443.608 121.981Z" fill="#2F2E41"/>
<path d="M472.325 17.1702C470.782 14.2588 468.821 8.45633 465.706 7.3802C463.977 6.80668 462.189 6.42586 460.376 6.24463L455.082 8.28076L457.963 6.0399C457.402 6.00648 456.842 5.97916 456.281 5.95794L452.709 7.33172L454.537 5.9104C451.207 5.87622 447.769 6.22247 445.189 8.24966C442.989 9.97783 440.81 16.5245 440.458 19.2995C440.081 21.9542 440.213 24.6563 440.846 27.2617L441.751 28.1219C442.067 27.3963 442.305 26.639 442.46 25.8628C442.785 24.4126 443.408 23.0459 444.289 21.8497C445.171 20.6535 446.292 19.6541 447.582 18.9152L447.631 18.8875C449.148 18.0336 450.989 18.073 452.729 18.1356L460.992 18.4329C462.98 18.5045 465.12 18.6302 466.67 19.8772C467.655 20.7971 468.43 21.9191 468.941 23.1663C469.711 24.7207 471.216 30.5834 471.216 30.5834C471.216 30.5834 472.067 29.4767 472.475 30.3004C473.13 28.1514 473.528 25.9325 473.661 23.6899C473.791 21.4374 473.33 19.19 472.325 17.1702V17.1702Z" fill="#2F2E41"/>
<path d="M526.999 33.3661C526.002 33.4317 525.031 33.7152 524.156 34.1966C523.28 34.678 522.52 35.3455 521.931 36.1521C521.341 36.9588 520.935 37.885 520.742 38.8654C520.549 39.8459 520.573 40.8568 520.813 41.8269L508.242 51.0994L512.014 60.1127L529.582 46.7688C531.185 46.258 532.545 45.1769 533.404 43.7304C534.263 42.2838 534.562 40.5724 534.244 38.9203C533.925 37.2683 533.012 35.7904 531.677 34.7667C530.342 33.743 528.677 33.2447 526.999 33.3661V33.3661Z" fill="#FFB6B6"/>
<path d="M524.975 52.2959L493.462 87.2943C493.462 87.2943 478.392 82.47 466.738 77.2397L461.502 61.1583C460.286 57.4276 459.767 53.505 459.971 49.5865C476.128 45.2872 494.92 61.2843 494.92 61.2843L518.509 42.8074L524.975 52.2959Z" fill="#0A1D37"/>
<path d="M451.444 136.19C445.822 134.248 440.009 132.24 433.738 131.486L433.469 131.453L433.543 131.193C440.034 108.401 438.414 93.8214 435.233 71.9209C434.557 67.197 435.426 62.381 437.711 58.1917C439.997 54.0023 443.575 50.6644 447.913 48.676L447.952 48.6586L465.861 47.5205L465.902 47.5181L478.927 51.3489C480.801 51.9041 482.441 53.0582 483.596 54.6346C484.751 56.2109 485.358 58.1225 485.322 60.0764C485.181 67.2788 485.481 75.3201 485.797 83.8333C486.508 102.932 487.243 122.681 483.073 135.495L483.051 135.562L482.995 135.606C479.161 138.729 474.357 140.416 469.413 140.377C463.566 140.377 457.6 138.316 451.444 136.19Z" fill="#0A1D37"/>
<path d="M581.463 252H6.8328C6.61193 252 6.4001 251.912 6.24392 251.756C6.08775 251.6 6 251.388 6 251.167C6 250.946 6.08775 250.735 6.24392 250.578C6.4001 250.422 6.61193 250.334 6.8328 250.334H581.463C581.684 250.334 581.896 250.422 582.052 250.578C582.208 250.735 582.296 250.946 582.296 251.167C582.296 251.388 582.208 251.6 582.052 251.756C581.896 251.912 581.684 252 581.463 252Z" fill="#CCCCCC"/>
</g>
<defs>
<filter id="filter0_d" x="0" y="0" width="588.296" height="262" filterUnits="userSpaceOnUse" color-interpolation-filters="sRGB">
<feFlood flood-opacity="0" result="BackgroundImageFix"/>
<feColorMatrix in="SourceAlpha" type="matrix" values="0 0 0 0 0 0 0 0 0 0 0 0 0 0 0 0 0 0 127 0"/>
<feOffset dy="4"/>
<feGaussianBlur stdDeviation="3"/>
<feColorMatrix type="matrix" values="0 0 0 0 0 0 0 0 0 0 0 0 0 0 0 0 0 0 0.25 0"/>
<feBlend mode="normal" in2="BackgroundImageFix" result="effect1_dropShadow"/>
<feBlend mode="normal" in="SourceGraphic" in2="effect1_dropShadow" result="shape"/>
</filter>
<clipPath id="clip0">
<rect width="576.296" height="250" fill="white" transform="translate(6 2)"/>
</clipPath>
</defs>
</svg>
